<?xml version="1.0" encoding="UTF-8"?>
<svg id="Capa_1" xmlns="http://www.w3.org/2000/svg" version="1.1" viewBox="0 0 821.2 687.8">
  <!-- Generator: Adobe Illustrator 29.0.1, SVG Export Plug-In . SVG Version: 2.1.0 Build 192)  -->
  <defs>
    <style>
      .st0 {
        fill: #3f3d56;
      }

      .st1 {
        fill: #ccc;
      }

      .st2 {
        fill: #ec9720;
      }

      .st3 {
        fill: #e6e6e6;
      }
    </style>
  </defs>
  <path id="ae5c11dc-7e77-468a-a39f-cc8da6ee1565-69" class="st0" d="M252.1,685.6v-379.8c0-4.9,3.9-8.8,8.8-8.8h39.4c4.9,0,8.8,3.9,8.8,8.8h0v380.8l-57-1Z"/>
  <path id="bc696f83-47b6-45c9-967f-bb64f1f3bee5-70" class="st0" d="M382.1,686.8v-302c0-4.9,3.9-8.8,8.8-8.8h39.4c4.9,0,8.8,3.9,8.8,8.8h0v301.3l-57,.7Z"/>
  <path class="st0" d="M151.1,328c-1.7,0-3-1.3-3-3,0-.7.3-1.5.8-2l131.6-146.8,129.5,72.7L540.3,24.4l132.7,109.2c1.3,1.1,1.5,2.9.4,4.2s-2.9,1.5-4.2.4c0,0,0,0,0,0l-127.3-104.8-129.7,223.5-130.5-73.3-128.4,143.2c-.6.6-1.4,1-2.2,1Z"/>
  <circle id="a1f8771a-4bf9-4603-9747-6ae739e4ad47" class="st2" cx="150.6" cy="325" r="28"/>
  <circle id="ffdbdf53-78c2-412f-9ede-372406e5d245" class="st1" cx="280.6" cy="180" r="28"/>
  <circle id="b7cff929-f00d-4f86-944c-e500b6ceb6ad" class="st3" cx="410.6" cy="253" r="28"/>
  <circle id="eabc0b76-6faa-4fa0-934c-daff28b491dd" class="st2" cx="540.6" cy="29" r="28"/>
  <path id="b3465432-03e0-48eb-8016-b04aa244e72c-72" class="st0" d="M642.1,685.5V247.7c0-5.6,3.9-10.2,8.8-10.2h39.4c4.9,0,8.8,4.6,8.8,10.2v438.9l-57-1.1Z"/>
  <path id="ef6ae9ea-be37-4bc6-b1be-067860dc7e9d-76" class="st0" d="M122.1,686.1v-211.3c0-2.7,3.9-4.9,8.8-4.9h39.4c4.9,0,8.8,2.2,8.8,4.9v211.9l-57-.6Z"/>
  <path id="b32730d1-ac43-40b1-a176-73e18bf362e5-78" class="st2" d="M512.1,685.3V188.5c0-6.4,3.9-11.5,8.8-11.5h39.4c4.9,0,8.8,5.2,8.8,11.5v498.1l-57-1.3Z"/>
</svg>